HIERARCHY
ROOT hip
{
	OFFSET 0.000000 0.000000 0.000000 
	CHANNELS 6 Xposition Yposition Zposition Xrotation Zrotation Yrotation
	JOINT abdomen
	{
		OFFSET 0.000000 3.402643 0.000000 
		CHANNELS 3 Xrotation Zrotation Yrotation
		JOINT chest
		{
			OFFSET 0.000000 8.438565 -0.680529 
			CHANNELS 3 Xrotation Zrotation Yrotation
			JOINT neck
			{
				OFFSET 0.000000 10.207942 -0.272212 
				CHANNELS 3 Xrotation Zrotation Yrotation
				JOINT head
				{
					OFFSET 0.000000 3.130431 0.000000 
					CHANNELS 3 Xrotation Zrotation Yrotation
					End Site
					{
						OFFSET 0.000000 3.130435 0.000000 
					}
				}
			}
			JOINT lCollar
			{
				OFFSET 3.470700 6.669187 -0.816635 
				CHANNELS 3 Yrotation Zrotation Xrotation
				JOINT lShldr
				{
					OFFSET 3.198488 0.000000 0.000000 
					CHANNELS 3 Zrotation Yrotation Xrotation
					JOINT lForeArm
					{
						OFFSET 10.139888 0.000000 0.000000 
						CHANNELS 3 Yrotation Zrotation Xrotation
						JOINT lHand
						{
							OFFSET 8.370511 0.000000 0.000000 
							CHANNELS 3 Zrotation Yrotation Xrotation
							End Site
							{
								OFFSET 4.083176 0.000000 0.000000 
							}
						}
					}
				}
			}
			JOINT rCollar
			{
				OFFSET -3.470700 6.669187 -0.816635 
				CHANNELS 3 Yrotation Zrotation Xrotation
				JOINT rShldr
				{
					OFFSET -3.198488 0.000000 0.000000 
					CHANNELS 3 Zrotation Yrotation Xrotation
					JOINT rForeArm
					{
						OFFSET -10.139888 0.000000 0.000000 
						CHANNELS 3 Yrotation Zrotation Xrotation
						JOINT rHand
						{
							OFFSET -8.370511 0.000000 0.000000 
							CHANNELS 3 Zrotation Yrotation Xrotation
							End Site
							{
								OFFSET -4.083176 0.000000 0.000000 
							}
						}
					}
				}
			}
		}
	}
	JOINT lThigh
	{
		OFFSET 5.308129 -1.633274 1.361059 
		CHANNELS 3 Xrotation Zrotation Yrotation
		JOINT lShin
		{
			OFFSET -2.041588 -20.007561 0.000000 
			CHANNELS 3 Xrotation Zrotation Yrotation
			JOINT lFoot
			{
				OFFSET 0.000000 -19.190928 -1.224953 
				CHANNELS 3 Xrotation Yrotation Zrotation
				End Site
				{
					OFFSET 0.000000 -2.449906 4.627600 
				}
			}
		}
	}
	JOINT rThigh
	{
		OFFSET -5.308129 -1.633274 1.361059 
		CHANNELS 3 Xrotation Zrotation Yrotation
		JOINT rShin
		{
			OFFSET 2.041588 -20.007561 0.000000 
			CHANNELS 3 Xrotation Zrotation Yrotation
			JOINT rFoot
			{
				OFFSET 0.000000 -19.190928 -1.224953 
				CHANNELS 3 Xrotation Yrotation Zrotation
				End Site
				{
					OFFSET 0.000000 -2.449906 4.627600 
				}
			}
		}
	}
}
MOTION
Frames: 16
Frame Time: 0.011111
34.202324 12.892618 34.129581 -99.350380 -0.447493 0.588274 35.363892 -3.389873 -1.819587 -28.968079 -1.246853 -0.014799 -7.921587 -1.407225 3.319874 -2.774984 16.299370 5.850983 -3.413843 -5.192144 0.282785 -25.670065 -25.969301 -48.902168 -88.018684 3.988681 33.628014 8.524705 12.647240 -4.290418 7.531429 2.224408 -0.396538 43.593143 2.933775 -1.049546 94.127480 -8.241317 37.514336 -8.534408 -12.637552 60.853378 4.238626 23.522680 0.618849 22.376451 -5.679157 -3.867069 -19.451366 9.923448 0.358790 17.987589 -21.670410 -8.302157 -0.115972 5.950120 0.663292 -36.672184 -9.982841 -5.773561 
34.185154 12.872950 34.217934 -99.625427 -0.445807 0.758973 35.801571 -3.395440 -1.565363 -29.144403 -1.575778 0.094093 -8.031145 -1.211175 3.129208 -2.513819 16.147568 5.565686 -3.413843 -5.192144 0.282785 -24.751377 -26.648054 -50.567413 -87.858376 3.806049 33.465885 8.524705 12.647240 -3.802138 7.531429 2.224408 -0.396538 43.975891 2.490271 -2.970074 94.378075 -8.357116 37.648937 -8.534408 -12.637552 61.917831 4.345566 23.707172 1.168946 22.508987 -5.672700 -3.877333 -18.620752 10.225673 0.243116 18.479160 -21.517529 -8.512010 -0.117379 5.940332 0.662489 -37.530674 -7.959507 -4.909205 
34.172043 12.867020 34.193584 -99.744415 -0.506371 0.859707 36.032516 -3.406829 -1.185942 -29.223402 -1.910737 0.222646 -7.741837 -0.959425 2.847136 -3.006424 15.820666 5.029067 -3.413843 -5.192144 0.282785 -23.570866 -27.943813 -52.237179 -87.537361 3.414011 33.125690 8.524705 12.647240 -5.266981 7.531429 2.224408 -0.396538 44.290928 2.050148 -4.873888 94.564232 -8.437253 37.739845 -8.534408 -12.637552 63.109234 4.385066 23.894308 1.887391 22.619976 -5.669342 -3.906703 -18.363062 10.101066 0.168332 18.621382 -21.425322 -8.576236 -0.117378 5.940330 0.662489 -37.582470 -8.545564 -5.304037 
34.164547 12.861086 34.155495 -99.687874 -0.642007 0.882260 36.025921 -3.334988 -0.795925 -29.243845 -2.178321 0.338313 -7.227857 -0.751765 2.587130 -3.775577 15.429773 4.495671 -3.413843 -5.192144 0.282785 -22.995846 -29.408909 -54.583679 -87.240379 3.014340 32.759499 8.524705 12.647240 -10.530652 7.531429 2.224408 -0.396538 44.439865 1.623223 -6.525171 94.679352 -8.490150 37.797089 -8.534408 -12.637552 64.261574 4.257370 24.118334 2.188945 22.779114 -5.681906 -3.893890 -19.065098 9.577148 0.174424 18.537054 -21.273033 -8.530252 -0.117373 5.940332 0.662489 -37.474957 -9.259198 -5.678102 
34.161430 12.849223 34.118347 -99.747581 -0.742303 0.870558 36.178223 -3.295439 -0.545393 -29.351799 -2.294477 0.412098 -6.751861 -0.511602 2.387609 -4.414339 14.894690 4.123465 -3.413843 -5.192144 0.282785 -22.757303 -30.299679 -56.295532 -87.103424 2.812644 32.572491 8.524705 12.647240 -14.475966 7.531429 2.224408 -0.396538 44.408882 1.345414 -7.933972 94.729103 -8.510132 37.819992 -8.534408 -12.637552 65.130714 4.374085 24.265373 2.651464 22.748386 -5.685449 -3.882185 -19.615372 9.125492 0.191422 18.559019 -21.176638 -8.478497 -0.116355 5.940534 0.673237 -37.248589 -10.012106 -6.018992 
34.162361 12.832992 34.115849 -99.933899 -0.832785 0.849625 36.514244 -3.239021 -0.224667 -29.587130 -2.465277 0.511469 -6.703904 -0.472098 2.322807 -4.349830 14.932924 4.017265 -3.413843 -5.192144 0.282785 -22.462973 -30.983326 -57.139507 -87.010254 2.669272 32.422256 8.524705 12.647240 -17.015028 7.531429 2.224408 -0.396538 44.388424 1.058833 -9.343999 94.747734 -8.519646 37.831230 -8.534408 -12.637552 65.882675 4.646859 24.409172 3.257225 22.717587 -5.685279 -3.898955 -20.079317 8.341632 0.054861 18.725815 -21.089760 -8.417605 -0.107640 5.940660 0.673114 -37.098629 -10.389214 -6.188015 
34.169231 12.819256 34.143009 -100.021683 -0.933320 0.779635 36.699368 -3.188729 -0.179302 -29.664843 -2.366724 0.507317 -7.403093 -0.491607 2.558448 -3.173971 15.432611 4.613200 -3.413843 -5.192144 0.282785 -22.736105 -30.944004 -57.707523 -87.000160 2.651432 32.413345 8.524705 12.647240 -18.294325 7.531429 2.224408 -0.396538 44.033821 1.102605 -10.301067 94.679352 -8.490150 37.797089 -8.534408 -12.637552 66.712746 4.783104 24.555393 3.653830 22.748413 -5.685329 -3.882165 -20.900410 7.094436 -0.165559 18.775642 -21.022858 -8.276438 -0.117357 5.940332 0.662489 -36.985344 -10.449389 -6.174728 
34.177345 12.813011 34.143948 -100.059242 -0.970782 0.677922 36.775681 -3.240460 0.055655 -29.684710 -2.442769 0.581249 -6.430075 -0.392122 2.346805 -5.048340 14.900572 4.010546 -3.413843 -5.192144 0.282785 -22.712748 -31.236399 -57.638950 -86.987740 2.633039 32.384960 8.524705 12.647240 -18.831432 7.531429 2.224408 -0.396538 43.852394 0.967193 -11.509608 94.640877 -8.472390 37.774750 -8.534408 -12.637552 67.718605 4.881550 24.596062 3.892731 22.768522 -5.685463 -3.883949 -21.552996 6.319373 -0.282530 18.759235 -21.024944 -8.183450 -0.107635 5.940661 0.673114 -36.892876 -10.471041 -6.130681 
34.179844 12.811136 34.114597 -100.048599 -0.990737 0.621604 36.780830 -3.303546 0.356281 -29.773560 -2.621966 0.686883 -5.816796 -0.688984 2.285356 -6.181754 15.418090 3.637419 -3.413843 -5.192144 0.282785 -22.607697 -31.477064 -56.842422 -86.988937 2.633302 32.394699 8.524705 12.647240 -18.460339 7.531429 2.224408 -0.396538 43.803364 0.569969 -12.837193 94.660767 -8.480569 37.785862 -8.534408 -12.637552 69.036972 4.939916 24.607058 4.062729 22.778576 -5.685545 -3.884844 -21.889540 6.107382 -0.292457 18.713005 -20.999449 -8.093467 -0.117352 5.940333 0.662489 -36.744343 -10.423238 -6.059015 
34.183590 12.805519 34.107418 -100.125725 -1.000190 0.565280 36.885216 -3.346441 0.550386 -29.891483 -2.736690 0.763031 -5.417062 -0.842922 2.279698 -6.948174 15.680391 3.476987 -3.413843 -5.192144 0.282785 -22.653408 -31.498213 -55.707714 -87.016960 2.678621 32.441547 8.524705 12.647240 -16.809952 7.531429 2.224408 -0.396538 43.679329 0.342102 -14.012066 94.650887 -8.476796 37.785175 -8.534408 -12.637552 70.286972 5.095136 24.583969 3.984072 22.747833 -5.689138 -3.873147 -22.557001 5.513850 -0.399797 18.806704 -20.946598 -8.019825 -0.107616 5.950239 0.663174 -36.469299 -10.622894 -6.040015 
34.189835 12.799586 34.113037 -100.310280 -1.008842 0.510876 37.108135 -3.369095 0.653777 -29.999390 -2.798942 0.799743 -5.055585 -0.816655 2.296511 -7.628166 15.554057 3.418134 -3.413843 -5.192144 0.282785 -22.833158 -31.260187 -54.374660 -87.073570 2.768183 32.525578 8.524705 12.647240 -14.270886 7.531429 2.224408 -0.396538 43.535477 0.318395 -15.030738 94.592598 -8.450741 37.751740 -8.534408 -12.637552 71.214699 5.330986 24.557234 3.856145 22.740561 -5.675840 -3.879562 -23.196297 5.194905 -0.375439 19.022295 -20.840063 -7.959492 -0.106266 5.950443 0.673919 -36.185158 -10.917740 -6.095714 
34.200451 12.797714 34.094307 -100.290077 -0.995033 0.478226 37.086529 -3.402044 0.744722 -30.048916 -2.900329 0.841363 -4.879083 -0.751026 2.344829 -8.092951 15.445357 3.477420 -3.413843 -5.192144 0.282785 -23.087326 -30.839130 -52.889313 -87.138748 2.865409 32.619278 8.524705 12.647240 -11.702528 7.531429 2.224408 -0.396538 43.450760 0.388718 -15.900918 94.485054 -8.403950 37.695450 -8.534408 -12.637552 71.878769 5.341067 24.502533 3.711199 22.725988 -5.693741 -3.891645 -23.628996 5.092491 -0.351599 18.871983 -20.865158 -7.888249 -0.117342 5.940331 0.662489 -35.745354 -11.882653 -6.439453 
34.207943 12.794591 34.099304 -100.358856 -0.979587 0.506475 37.184582 -3.369265 1.006041 -30.109875 -3.220519 0.933895 -4.792068 -0.769458 2.285237 -8.509806 15.459199 3.302804 -3.413843 -5.192144 0.282785 -22.918240 -30.852686 -51.375427 -87.133286 2.856358 32.609688 8.524705 12.647240 -9.954480 7.531429 2.224408 -0.396538 43.667793 0.360608 -16.950422 94.387856 -8.361047 37.649616 -8.534408 -12.637552 72.386574 5.389786 24.471409 3.744824 22.748411 -5.685338 -3.882167 -23.717091 5.033765 -0.350903 18.959631 -20.855312 -7.916742 -0.117341 5.940331 0.662488 -35.662907 -11.712489 -6.312546 
34.216373 12.791781 34.086819 -100.388397 -0.966201 0.524426 37.243729 -3.329200 1.206793 -30.112453 -3.533756 1.012061 -4.704769 -0.882637 2.262786 -8.918705 15.677687 3.176633 -3.413843 -5.192144 0.282785 -22.932703 -30.941164 -50.009354 -87.181236 2.927140 32.684948 8.524705 12.647240 -9.583385 7.531429 2.224408 -0.396538 43.938992 0.377101 -17.996624 94.338608 -8.339445 37.617020 -8.534408 -12.637552 72.845566 5.378284 24.456770 3.682108 22.800970 -5.674550 -3.894246 -23.784332 5.161931 -0.276614 18.988016 -20.883600 -7.957684 -0.117343 5.940333 0.662488 -35.628407 -11.365104 -6.112637 
34.225735 12.792093 34.090561 -100.485992 -0.997667 0.512194 37.350887 -3.210633 1.141775 -30.083115 -3.530018 0.979669 -4.761283 -1.012382 2.441839 -9.068906 15.946750 3.445326 -3.413843 -5.192144 0.282785 -23.313082 -30.622381 -48.966511 -87.138336 2.865559 32.618790 8.524705 12.647240 -10.354871 7.531429 2.224408 -0.396538 43.831570 0.680634 -18.642435 94.261551 -8.304356 37.582321 -8.534408 -12.637552 73.197121 5.496264 24.508299 3.995402 22.901527 -5.675054 -3.904090 -23.616112 5.049735 -0.367960 19.098082 -20.827570 -7.926253 -0.117340 5.940333 0.662488 -35.463566 -11.312943 -6.010407 
34.235416 12.790533 34.088379 -100.622818 -1.027036 0.510369 37.536552 -3.098945 1.086360 -30.063385 -3.506884 0.944324 -4.817992 -1.114216 2.599239 -9.327065 15.995297 3.685755 -3.413843 -5.192144 0.282785 -23.824532 -30.504017 -48.176243 -87.103020 2.812788 32.572495 8.524705 12.647240 -11.800183 7.531429 2.224408 -0.396538 43.678146 1.058210 -19.284191 94.193138 -8.274310 37.548424 -8.534408 -12.637552 73.421730 5.680662 24.522850 4.175270 22.859156 -5.684115 -3.901265 -23.467249 5.114207 -0.367870 19.233955 -20.788261 -7.903207 -0.117339 5.940332 0.662488 -35.226982 -11.372056 -5.951706 
